<svg xmlns="http://www.w3.org/2000/svg" xmlns:xlink="http://www.w3.org/1999/xlink" id="visual" viewBox="0 0 960 540"
  width="960" height="540" version="1.1">
  <rect x="0" y="0" width="960" height="540" fill="#001220" />
  <path
    d="M0 304L16 293.8C32 283.7 64 263.3 96 270.8C128 278.3 160 313.7 192 321C224 328.3 256 307.7 288 295.7C320 283.7 352 280.3 384 281.3C416 282.3 448 287.7 480 283.5C512 279.3 544 265.7 576 272.8C608 280 640 308 672 312.8C704 317.7 736 299.3 768 285.7C800 272 832 263 864 256.8C896 250.7 928 247.3 944 245.7L960 244L960 541L944 541C928 541 896 541 864 541C832 541 800 541 768 541C736 541 704 541 672 541C640 541 608 541 576 541C544 541 512 541 480 541C448 541 416 541 384 541C352 541 320 541 288 541C256 541 224 541 192 541C160 541 128 541 96 541C64 541 32 541 16 541L0 541Z"
    fill="#1e293b" />
  <path
    d="M0 456L16 457.7C32 459.3 64 462.7 96 447.8C128 433 160 400 192 392.2C224 384.3 256 401.7 288 406.8C320 412 352 405 384 397.5C416 390 448 382 480 385.2C512 388.3 544 402.7 576 401.2C608 399.7 640 382.3 672 391.8C704 401.3 736 437.7 768 444.8C800 452 832 430 864 430C896 430 928 452 944 463L960 474L960 541L944 541C928 541 896 541 864 541C832 541 800 541 768 541C736 541 704 541 672 541C640 541 608 541 576 541C544 541 512 541 480 541C448 541 416 541 384 541C352 541 320 541 288 541C256 541 224 541 192 541C160 541 128 541 96 541C64 541 32 541 16 541L0 541Z"
    fill="#334155" />
</svg>