<svg xmlns="http://www.w3.org/2000/svg" xmlns:xlink="http://www.w3.org/1999/xlink" id="visual" viewBox="0 0 960 540"
  width="960" height="540" version="1.1">
  <path
    d="M0 330L137 372L274 349L411 386L549 323L686 347L823 334L960 334L960 541L823 541L686 541L549 541L411 541L274 541L137 541L0 541Z"
    fill="#c084fc" />
  <path
    d="M0 415L137 368L274 425L411 373L549 368L686 420L823 357L960 387L960 541L823 541L686 541L549 541L411 541L274 541L137 541L0 541Z"
    fill="#a86bea" />
  <path
    d="M0 430L137 449L274 442L411 455L549 419L686 427L823 432L960 455L960 541L823 541L686 541L549 541L411 541L274 541L137 541L0 541Z"
    fill="#8f53d9" />
  <path
    d="M0 434L137 457L274 460L411 488L549 462L686 481L823 458L960 472L960 541L823 541L686 541L549 541L411 541L274 541L137 541L0 541Z"
    fill="#763bc7" />
  <path
    d="M0 499L137 483L274 500L411 497L549 505L686 510L823 497L960 477L960 541L823 541L686 541L549 541L411 541L274 541L137 541L0 541Z"
    fill="#5b21b6" />
</svg>