<svg width="3128px" height="336px" viewBox="0 0 3128 336" version="1.1" xmlns="http://www.w3.org/2000/svg"
  xmlns:xlink="http://www.w3.org/1999/xlink">
  <g id="tech-stack.tools" stroke="none" stroke-width="1" fill="none" fill-rule="evenodd">
    <g id="Icon" transform="translate(-20.000000, -82.000000)" fill-rule="nonzero">
      <g id="logo-stack" transform="translate(20.000000, 95.000000)">
        <polygon id="路径" fill="#8B5CF6" points="217.348117 0 362 0 255.651883 323 111 323"></polygon>
        <polygon id="路径" fill="#C4B5FD"
          points="255.213215 197.893723 214 323 365.594772 323 472 0 360.11359 0 294.921577 197.893723"></polygon>
        <polygon id="路径" fill="#6D28D9"
          transform="translate(129.000000, 161.500000) rotate(-180.000000) translate(-129.000000, -161.500000) "
          points="41.2132153 197.893723 0 323 151.594772 323 258 0 146.11359 0 80.921577 197.893723"></polygon>
      </g>
    </g>
    <g id="techstack.tools" transform="translate(581.392000, 8.800000)" fill-rule="nonzero" stroke-width="16">
      <path
        d="M74.12,305.2 C59.296,305.2 47.96,300.404 40.112,290.812 C32.264,281.22 28.34,268.576 28.34,252.88 L28.34,119.9 L2.27373675e-13,119.9 L2.27373675e-13,87.2 L28.34,87.2 L28.34,34.88 L65.4,34.88 L65.4,87.2 L115.976,87.2 L115.976,119.9 L65.4,119.9 L65.4,255.06 C65.4,261.454667 66.9986667,265.96 70.196,268.576 C73.3933333,271.192 78.3346667,272.5 85.02,272.5 L115.976,272.5 L115.976,305.2 L74.12,305.2 Z"
        id="路径" stroke="#1E293B" fill="#1E293B"></path>
      <path
        d="M231.516,305.2 C205.937333,305.2 187.189333,299.75 175.272,288.85 C163.354667,277.95 157.396,260.146667 157.396,235.44 L157.396,156.96 C157.396,131.962667 162.773333,114.086667 173.528,103.332 C184.282667,92.5773333 202.158667,87.2 227.156,87.2 L238.928,87.2 C259.565333,87.2 275.188667,92.9406667 285.798,104.422 C296.407333,115.903333 301.712,132.689333 301.712,154.78 L301.712,211.46 L194.456,211.46 L194.456,244.16 C194.456,253.170667 197.217333,260.146667 202.74,265.088 C208.262667,270.029333 216.401333,272.5 227.156,272.5 L287.76,272.5 L287.76,305.2 L231.516,305.2 Z M265.524,178.76 L265.524,146.06 C265.524,138.502667 263.053333,132.253333 258.112,127.312 C253.170667,122.370667 246.921333,119.9 239.364,119.9 L222.796,119.9 C212.332,119.9 204.992667,122.298 200.778,127.094 C196.563333,131.89 194.456,138.938667 194.456,148.24 L194.456,178.76 L265.524,178.76 Z"
        id="形状" stroke="#1E293B" fill="#1E293B"></path>
      <path
        d="M434.692,305.2 C409.113333,305.2 390.365333,299.75 378.448,288.85 C366.530667,277.95 360.572,260.146667 360.572,235.44 L360.572,156.96 C360.572,132.544 366.603333,114.813333 378.666,103.768 C390.728667,92.7226667 409.404,87.2 434.692,87.2 L482.216,87.2 L482.216,119.9 L430.332,119.9 C419.577333,119.9 411.438667,122.370667 405.916,127.312 C400.393333,132.253333 397.632,139.229333 397.632,148.24 L397.632,244.16 C397.632,253.170667 400.393333,260.146667 405.916,265.088 C411.438667,270.029333 419.577333,272.5 430.332,272.5 L482.216,272.5 L482.216,305.2 L434.692,305.2 Z"
        id="路径" stroke="#1E293B" fill="#1E293B"></path>
      <path
        d="M538.896,0 L575.956,0 L575.956,95.92 C584.676,90.1066667 595.576,87.2 608.656,87.2 L619.992,87.2 C643.536,87.2 661.048667,92.7226667 672.53,103.768 C684.011333,114.813333 689.752,132.544 689.752,156.96 L689.752,305.2 L652.692,305.2 L652.692,148.24 C652.692,139.52 650.148667,132.616667 645.062,127.53 C639.975333,122.443333 633.072,119.9 624.352,119.9 L604.296,119.9 C594.994667,119.9 587.946,122.298 583.15,127.094 C578.354,131.89 575.956,137.049333 575.956,142.572 L575.956,305.2 L538.896,305.2 L538.896,0 Z"
        id="路径" stroke="#1E293B" fill="#1E293B"></path>
      <path
        d="M872.436,250.7 C872.436,269.012 866.840667,282.673333 855.65,291.684 C844.459333,300.694667 828.254667,305.2 807.036,305.2 L750.792,305.2 L750.792,272.5 L811.396,272.5 C819.244,272.5 825.202667,270.828667 829.272,267.486 C833.341333,264.143333 835.376,259.274667 835.376,252.88 L835.376,229.772 C835.376,216.692 829.126667,210.152 816.628,210.152 L809.216,210.152 C788.869333,210.152 773.682,205.719333 763.654,196.854 C753.626,187.988667 748.612,173.964 748.612,154.78 L748.612,142.136 C748.612,122.661333 754.134667,108.636667 765.18,100.062 C776.225333,91.4873333 792.502667,87.2 814.012,87.2 L863.716,87.2 L863.716,119.9 L809.652,119.9 C802.385333,119.9 796.572,121.571333 792.212,124.914 C787.852,128.256667 785.672,133.125333 785.672,139.52 L785.672,155.216 C785.672,161.901333 787.634,166.842667 791.558,170.04 C795.482,173.237333 800.496,174.836 806.6,174.836 L812.704,174.836 C832.178667,174.836 847.002667,179.559333 857.176,189.006 C867.349333,198.452667 872.436,212.477333 872.436,231.08 L872.436,250.7 Z"
        id="路径" stroke="#1E293B" fill="#1E293B"></path>
      <path
        d="M979.256,305.2 C964.432,305.2 953.096,300.404 945.248,290.812 C937.4,281.22 933.476,268.576 933.476,252.88 L933.476,119.9 L905.136,119.9 L905.136,87.2 L933.476,87.2 L933.476,34.88 L970.536,34.88 L970.536,87.2 L1021.112,87.2 L1021.112,119.9 L970.536,119.9 L970.536,255.06 C970.536,261.454667 972.134667,265.96 975.332,268.576 C978.529333,271.192 983.470667,272.5 990.156,272.5 L1021.112,272.5 L1021.112,305.2 L979.256,305.2 Z"
        id="路径" stroke="#1E293B" fill="#1E293B"></path>
      <path
        d="M1195.512,305.2 C1191.73333,305.2 1187.59133,304.037333 1183.086,301.712 C1178.58067,299.386667 1174.72933,296.189333 1171.532,292.12 C1164.84667,300.84 1155.98133,305.2 1144.936,305.2 L1114.852,305.2 C1092.76133,305.2 1076.702,300.767333 1066.674,291.902 C1056.646,283.036667 1051.632,267.849333 1051.632,246.34 L1051.632,237.62 C1051.632,192.566667 1072.85067,170.04 1115.288,170.04 L1160.632,170.04 L1160.632,148.24 C1160.632,139.229333 1157.87067,132.253333 1152.348,127.312 C1146.82533,122.370667 1138.68667,119.9 1127.932,119.9 L1069.072,119.9 L1069.072,87.2 L1123.572,87.2 C1148.86,87.2 1167.53533,92.7226667 1179.598,103.768 C1191.66067,114.813333 1197.692,132.544 1197.692,156.96 L1197.692,261.6 C1197.692,265.96 1199.36333,269.23 1202.706,271.41 C1206.04867,273.59 1211.644,274.68 1219.492,274.68 L1219.492,305.2 L1195.512,305.2 Z M1140.576,272.5 C1149.296,272.5 1154.81867,270.465333 1157.144,266.396 C1159.46933,262.326667 1160.632,257.094667 1160.632,250.7 L1160.632,202.74 L1114.852,202.74 C1107.29467,202.74 1101.04533,205.210667 1096.104,210.152 C1091.16267,215.093333 1088.692,221.342667 1088.692,228.9 L1088.692,250.7 C1088.692,258.257333 1090.436,263.78 1093.924,267.268 C1097.412,270.756 1102.93467,272.5 1110.492,272.5 L1140.576,272.5 Z"
        id="形状" stroke="#1E293B" fill="#1E293B"></path>
      <path
        d="M1341.572,305.2 C1315.99333,305.2 1297.24533,299.75 1285.328,288.85 C1273.41067,277.95 1267.452,260.146667 1267.452,235.44 L1267.452,156.96 C1267.452,132.544 1273.48333,114.813333 1285.546,103.768 C1297.60867,92.7226667 1316.284,87.2 1341.572,87.2 L1389.096,87.2 L1389.096,119.9 L1337.212,119.9 C1326.45733,119.9 1318.31867,122.370667 1312.796,127.312 C1307.27333,132.253333 1304.512,139.229333 1304.512,148.24 L1304.512,244.16 C1304.512,253.170667 1307.27333,260.146667 1312.796,265.088 C1318.31867,270.029333 1326.45733,272.5 1337.212,272.5 L1389.096,272.5 L1389.096,305.2 L1341.572,305.2 Z"
        id="路径" stroke="#1E293B" fill="#1E293B"></path>
      <polygon id="路径" stroke="#1E293B" fill="#1E293B"
        points="1554.776 305.2 1495.044 197.508 1482.836 211.896 1482.836 305.2 1445.776 305.2 1445.776 0 1482.836 0 1482.836 163.064 1548.236 87.2 1594.888 87.2 1521.204 171.348 1597.94 305.2">
      </polygon>
      <polygon id="路径" stroke="#1E293B" fill="#1E293B" points="1641.54 305.2 1641.54 261.6 1685.14 261.6 1685.14 305.2">
      </polygon>
      <g id="tools" transform="translate(1722.200000, 0.000000)" fill="#8b5cf6" stroke="#8b5cf6">
        <path
          d="M74.12,305.2 C59.296,305.2 47.96,300.404 40.112,290.812 C32.264,281.22 28.34,268.576 28.34,252.88 L28.34,119.9 L0,119.9 L0,87.2 L28.34,87.2 L28.34,34.88 L65.4,34.88 L65.4,87.2 L115.976,87.2 L115.976,119.9 L65.4,119.9 L65.4,255.06 C65.4,261.454667 66.9986667,265.96 70.196,268.576 C73.3933333,271.192 78.3346667,272.5 85.02,272.5 L115.976,272.5 L115.976,305.2 L74.12,305.2 Z"
          id="路径"></path>
        <path
          d="M311.304,235.44 C311.304,259.856 305.272667,277.586667 293.21,288.632 C281.147333,299.677333 262.472,305.2 237.184,305.2 L231.516,305.2 C206.228,305.2 187.552667,299.677333 175.49,288.632 C163.427333,277.586667 157.396,259.856 157.396,235.44 L157.396,156.96 C157.396,132.544 163.427333,114.813333 175.49,103.768 C187.552667,92.7226667 206.228,87.2 231.516,87.2 L237.184,87.2 C262.472,87.2 281.147333,92.7226667 293.21,103.768 C305.272667,114.813333 311.304,132.544 311.304,156.96 L311.304,235.44 Z M274.244,148.24 C274.244,139.229333 271.482667,132.253333 265.96,127.312 C260.437333,122.370667 252.298667,119.9 241.544,119.9 L227.156,119.9 C216.401333,119.9 208.262667,122.370667 202.74,127.312 C197.217333,132.253333 194.456,139.229333 194.456,148.24 L194.456,244.16 C194.456,253.170667 197.217333,260.146667 202.74,265.088 C208.262667,270.029333 216.401333,272.5 227.156,272.5 L241.544,272.5 C252.298667,272.5 260.437333,270.029333 265.96,265.088 C271.482667,260.146667 274.244,253.170667 274.244,244.16 L274.244,148.24 Z"
          id="形状"></path>
        <path
          d="M526.252,235.44 C526.252,259.856 520.220667,277.586667 508.158,288.632 C496.095333,299.677333 477.42,305.2 452.132,305.2 L446.464,305.2 C421.176,305.2 402.500667,299.677333 390.438,288.632 C378.375333,277.586667 372.344,259.856 372.344,235.44 L372.344,156.96 C372.344,132.544 378.375333,114.813333 390.438,103.768 C402.500667,92.7226667 421.176,87.2 446.464,87.2 L452.132,87.2 C477.42,87.2 496.095333,92.7226667 508.158,103.768 C520.220667,114.813333 526.252,132.544 526.252,156.96 L526.252,235.44 Z M489.192,148.24 C489.192,139.229333 486.430667,132.253333 480.908,127.312 C475.385333,122.370667 467.246667,119.9 456.492,119.9 L442.104,119.9 C431.349333,119.9 423.210667,122.370667 417.688,127.312 C412.165333,132.253333 409.404,139.229333 409.404,148.24 L409.404,244.16 C409.404,253.170667 412.165333,260.146667 417.688,265.088 C423.210667,270.029333 431.349333,272.5 442.104,272.5 L456.492,272.5 C467.246667,272.5 475.385333,270.029333 480.908,265.088 C486.430667,260.146667 489.192,253.170667 489.192,244.16 L489.192,148.24 Z"
          id="形状"></path>
        <path
          d="M626.532,305.2 C616.649333,305.2 608.002,301.712 600.59,294.736 C593.178,287.76 589.472,276.714667 589.472,261.6 L589.472,0 L626.532,0 L626.532,259.42 C626.532,264.070667 627.694667,267.413333 630.02,269.448 C632.345333,271.482667 636.269333,272.5 641.792,272.5 L650.512,272.5 L650.512,305.2 L626.532,305.2 Z"
          id="路径"></path>
        <path
          d="M815.756,250.7 C815.756,269.012 810.160667,282.673333 798.97,291.684 C787.779333,300.694667 771.574667,305.2 750.356,305.2 L694.112,305.2 L694.112,272.5 L754.716,272.5 C762.564,272.5 768.522667,270.828667 772.592,267.486 C776.661333,264.143333 778.696,259.274667 778.696,252.88 L778.696,229.772 C778.696,216.692 772.446667,210.152 759.948,210.152 L752.536,210.152 C732.189333,210.152 717.002,205.719333 706.974,196.854 C696.946,187.988667 691.932,173.964 691.932,154.78 L691.932,142.136 C691.932,122.661333 697.454667,108.636667 708.5,100.062 C719.545333,91.4873333 735.822667,87.2 757.332,87.2 L807.036,87.2 L807.036,119.9 L752.972,119.9 C745.705333,119.9 739.892,121.571333 735.532,124.914 C731.172,128.256667 728.992,133.125333 728.992,139.52 L728.992,155.216 C728.992,161.901333 730.954,166.842667 734.878,170.04 C738.802,173.237333 743.816,174.836 749.92,174.836 L756.024,174.836 C775.498667,174.836 790.322667,179.559333 800.496,189.006 C810.669333,198.452667 815.756,212.477333 815.756,231.08 L815.756,250.7 Z"
          id="路径"></path>
      </g>
    </g>
  </g>
</svg>